<svg width="2238" height="719" viewBox="0 0 2238 719" fill="none" xmlns="http://www.w3.org/2000/svg">
<path d="M1 607.573C27.0181 607.573 224.756 718.336 486.424 718.336C849.935 718.336 1049.9 -235.77 1527.89 56.7321C1876.54 270.081 2082.45 354.826 2216.26 258.93" stroke="white"/>
<path d="M22 488.71C48.0181 488.71 245.756 712.466 507.424 712.466C870.935 712.466 1066.66 -102.657 1578.63 125.199C1984.51 305.839 2162.92 325.167 2237.26 199.537" stroke="white"/>
<path d="M1 295.356C24.0446 312.454 224.756 712.39 486.424 712.39C849.935 712.39 1105.13 -13.5275 1617.1 214.328C2022.98 394.968 2086.91 365.977 2216.26 273.798" stroke="white"/>
</svg>
