<svg width="1452" height="717" viewBox="0 0 1452 717" fill="none" xmlns="http://www.w3.org/2000/svg">
<path d="M0 606.573C26.0181 606.573 223.756 717.336 485.424 717.336C848.935 717.336 1048.9 -236.77 1526.89 55.7321C1875.54 269.081 2081.45 353.826 2215.26 257.93" stroke="#D3D5D6"/>
<path d="M21 487.71C47.0181 487.71 244.756 711.466 506.424 711.466C869.935 711.466 1065.66 -103.657 1577.63 124.199C1983.51 304.839 2161.92 324.167 2236.26 198.537" stroke="#D3D5D6"/>
<path d="M0 294.356C23.0446 311.453 223.756 711.389 485.424 711.389C848.935 711.389 1104.13 -14.528 1616.1 213.328C2021.98 393.968 2085.91 364.976 2215.26 272.798" stroke="#D3D5D6"/>
</svg>
