<svg width="55" height="55" viewBox="0 0 55 55" fill="none" xmlns="http://www.w3.org/2000/svg">
<circle cx="27.5" cy="27.5" r="27.5" fill="#F0DB4F"/>
<path d="M47.8354 31.7137C47.3905 28.9401 45.5819 26.6115 40.2255 24.4389C38.3648 23.5837 36.2904 22.9712 35.6722 21.5613C35.4526 20.7408 35.4237 20.2785 35.5624 19.7816C35.9611 18.1694 37.8853 17.6667 39.4107 18.129C40.393 18.4583 41.3233 19.2153 41.8838 20.423C44.5072 18.7242 44.5014 18.7357 46.3331 17.5685C45.6628 16.5284 45.3046 16.0488 44.8654 15.6039C43.2879 13.8416 41.1384 12.9344 37.7003 13.0037C37.1052 13.0788 36.5043 13.1597 35.9091 13.2348C34.193 13.6682 32.5577 14.5696 31.5985 15.7773C28.7209 19.042 29.5414 24.7567 33.0431 27.1085C36.4927 29.6971 41.5602 30.2865 42.2074 32.7076C42.8372 35.6719 40.0291 36.631 37.2381 36.2902C35.181 35.8626 34.037 34.8167 32.8004 32.9156C30.5238 34.2331 30.5238 34.2331 28.1836 35.5794C28.7383 36.7929 29.3218 37.3418 30.2522 38.3935C34.6553 42.8601 45.6744 42.6405 47.6506 35.8799C47.7314 35.6487 48.2631 34.1001 47.8354 31.7137ZM25.069 13.3619H19.3832C19.3832 18.2734 19.3602 23.1503 19.3602 28.0618C19.3602 31.1879 19.5219 34.0539 19.0135 34.9322C18.1814 36.6599 16.0261 36.4461 15.0438 36.1109C14.0441 35.6198 13.5356 34.9206 12.9463 33.9326C12.7845 33.6494 12.6631 33.4299 12.6226 33.4125C11.0799 34.3544 9.5428 35.302 8 36.2439C8.76857 37.8213 9.90105 39.1908 11.3514 40.0806C13.5183 41.3807 16.4305 41.7794 19.4757 41.0802C21.4577 40.5024 23.168 39.3064 24.0636 37.4862C25.3579 35.0998 25.0806 32.2106 25.069 29.0153C25.0979 23.8032 25.069 18.5912 25.069 13.3619Z" fill="#323330"/>
</svg>
