<svg width="55" height="55" viewBox="0 0 55 55" fill="none" xmlns="http://www.w3.org/2000/svg">
<g clip-path="url(#clip0_1_36)">
<path d="M55 27.5C55 42.6868 42.6868 55 27.5 55C13.4871 55 1.92219 44.5209 0.217652 30.9702C0.0733659 29.8184 0 28.6592 0 27.5C0 25.3479 0.246999 23.2521 0.714095 21.2419C3.54847 9.07048 14.4653 0 27.5 0C40.5029 0 51.3977 9.02401 54.2615 21.1514C54.643 22.7606 54.8753 24.4015 54.9609 26.0547C54.9878 26.5365 55 27.0182 55 27.5Z" fill="#F2F2F2"/>
<path d="M26.1256 29.7083V22.5576L19.9335 18.9847L13.7414 22.5576V29.7083L19.9335 33.2837L26.1256 29.7083Z" fill="#3B8739"/>
<path d="M50.51 28.6225L54.5451 30.9531L50.51 33.2837L44.3179 29.7083V22.56L50.51 18.9847L54.2614 21.1514C54.643 22.7606 54.8753 24.4015 54.9609 26.0547L52.667 27.3802V24.8906L50.51 23.6458L48.353 24.8906V27.3802L50.51 28.6225Z" fill="#333333"/>
<path d="M51.7132 26.8275V25.4384L50.5125 24.7439L49.3093 25.4384V26.8275L50.5125 27.522L51.7132 26.8275Z" fill="#66A060"/>
<path d="M10.8166 22.56V31.9875L6.68608 29.6325V24.7977L4.6245 23.6067L2.56292 24.7977V29.6301L0.217652 30.9678C0.0733659 29.8184 0 28.6592 0 27.5C0 25.3479 0.246999 23.2521 0.714095 21.2419L4.6245 18.9847L10.8166 22.56Z" fill="#333333"/>
<path d="M19.9311 18.9822L26.1232 29.7059L19.9311 33.2812L13.7414 22.5576L19.9311 18.9822Z" fill="#6DA75D"/>
<path d="M13.7414 29.7083L15.8666 26.2405L13.7414 22.5576V29.7083Z" fill="#55A344"/>
<path d="M24.0591 26.1329L26.1232 22.5576L19.9335 18.9847L24.0591 26.1329Z" fill="#639D57"/>
<path d="M37.2283 10.6968V20.183L35.1521 18.9847L28.96 22.56V29.7108L35.1521 33.2861L41.3442 29.7108V12.9002L37.2283 10.6968ZM37.2161 27.3239L35.1521 28.5149L33.088 27.3239V24.942L35.1521 23.751L37.2161 24.942V27.3239Z" fill="#333333"/>
<path d="M30.3099 38.5342C30.3099 38.5342 30.1876 37.49 29.07 37.49C27.9524 37.49 27.187 37.6367 27.187 38.2555C27.187 38.8742 29.361 38.8742 30.1876 39.1187C31.0142 39.3608 31.743 39.9942 31.3786 41.1118C31.0142 42.2294 29.8966 42.3517 28.1701 42.3517C26.4435 42.3517 26.0547 40.9186 26.0547 40.3586H27.028C27.028 40.3586 26.9057 41.2341 28.0478 41.3784C29.1899 41.5227 30.283 41.6058 30.4297 40.723C30.6254 39.5565 26.7345 40.1385 26.3946 38.9964C26.106 38.0305 26.2723 36.7612 28.2165 36.5656C30.1607 36.3699 31.2294 37.2308 31.2294 38.5098L30.3099 38.5342Z" fill="#66A060"/>
<path d="M20.9166 43.0903L23.0663 44.3302C24.1472 44.9538 25.4971 44.1736 25.4971 42.9264V36.749H24.6216V42.6819C24.6216 43.3617 23.8855 43.7897 23.2937 43.4473L21.7946 42.5816V36.2501L27.2775 33.0856L32.7603 36.2501V42.5816L27.2775 45.7461L25.6976 44.8339L24.6656 45.2497L27.2775 46.7561L33.6358 43.0854V35.7439L27.2775 32.0732L20.9191 35.7439L20.9166 43.0903Z" fill="#66A060"/>
</g>
<defs>
<clipPath id="clip0_1_36">
<rect width="55" height="55" fill="white"/>
</clipPath>
</defs>
</svg>
