<svg width="55" height="55" viewBox="0 0 55 55" fill="none" xmlns="http://www.w3.org/2000/svg">
<circle cx="27.5" cy="27.5" r="27.5" fill="#393939"/>
<path d="M27.0817 7C16.8117 7 17.453 11.4438 17.453 11.4438L17.4644 16.0476H27.2648V17.4299H13.5718C13.5718 17.4299 7 16.6862 7 27.0255C7 37.3651 12.736 36.9984 12.736 36.9984H16.1592V32.2004C16.1592 32.2004 15.9747 26.4772 21.8037 26.4772H31.524C31.524 26.4772 36.9851 26.5652 36.9851 21.2109V12.3578C36.9851 12.3578 37.8146 7 27.0817 7ZM21.6777 10.096C21.9093 10.0958 22.1387 10.1412 22.3527 10.2295C22.5667 10.3178 22.7611 10.4474 22.9249 10.6108C23.0887 10.7742 23.2185 10.9682 23.307 11.1817C23.3956 11.3953 23.441 11.6241 23.4408 11.8552C23.441 12.0863 23.3956 12.3151 23.307 12.5286C23.2185 12.7422 23.0887 12.9362 22.9249 13.0996C22.7611 13.263 22.5667 13.3925 22.3527 13.4809C22.1387 13.5692 21.9093 13.6146 21.6777 13.6144C21.4461 13.6146 21.2168 13.5692 21.0028 13.4809C20.7888 13.3925 20.5943 13.263 20.4306 13.0996C20.2668 12.9362 20.1369 12.7422 20.0484 12.5286C19.9599 12.3151 19.9144 12.0863 19.9146 11.8552C19.9144 11.6241 19.9599 11.3953 20.0484 11.1817C20.1369 10.9682 20.2668 10.7742 20.4306 10.6108C20.5943 10.4474 20.7888 10.3178 21.0028 10.2295C21.2168 10.1412 21.4461 10.0958 21.6777 10.096Z" fill="url(#paint0_linear_1_39)"/>
<path d="M27.9185 47C38.1884 47 37.5472 42.5562 37.5472 42.5562L37.5358 37.9525H27.7352V36.5703H41.4282C41.4282 36.5703 48 37.314 48 26.9744C48 16.6349 42.264 17.0016 42.264 17.0016H38.8408V21.7994C38.8408 21.7994 39.0253 27.5227 33.1963 27.5227H23.476C23.476 27.5227 18.0149 27.4346 18.0149 32.7891V41.6423C18.0149 41.6423 17.1856 47 27.9183 47H27.9185ZM33.3224 43.9043C33.0908 43.9045 32.8615 43.8591 32.6475 43.7708C32.4335 43.6825 32.239 43.5529 32.0753 43.3895C31.9115 43.2261 31.7816 43.0321 31.6931 42.8186C31.6046 42.6051 31.5591 42.3762 31.5593 42.1451C31.5591 41.914 31.6045 41.6852 31.6931 41.4716C31.7816 41.2581 31.9114 41.064 32.0752 40.9006C32.239 40.7372 32.4334 40.6076 32.6474 40.5193C32.8614 40.431 33.0908 40.3856 33.3224 40.3858C33.554 40.3856 33.7834 40.4309 33.9974 40.5193C34.2114 40.6076 34.4058 40.7372 34.5696 40.9006C34.7333 41.064 34.8632 41.258 34.9517 41.4715C35.0403 41.685 35.0857 41.9139 35.0855 42.145C35.0857 42.376 35.0403 42.6049 34.9517 42.8184C34.8632 43.0319 34.7333 43.226 34.5696 43.3894C34.4058 43.5527 34.2114 43.6823 33.9974 43.7707C33.7834 43.859 33.554 43.9045 33.3224 43.9043Z" fill="url(#paint1_linear_1_39)"/>
<defs>
<linearGradient id="paint0_linear_1_39" x1="395.77" y1="368.17" x2="2396.17" y2="2353.03" gradientUnits="userSpaceOnUse">
<stop stop-color="#387EB8"/>
<stop offset="1" stop-color="#366994"/>
</linearGradient>
<linearGradient id="paint1_linear_1_39" x1="591.84" y1="634.37" x2="2740.26" y2="2669.87" gradientUnits="userSpaceOnUse">
<stop stop-color="#FFE052"/>
<stop offset="1" stop-color="#FFC331"/>
</linearGradient>
</defs>
</svg>
