<?xml version="1.0" encoding="UTF-8" standalone="no"?>
<svg xmlns:dc="http://purl.org/dc/elements/1.1/" xmlns:cc="http://creativecommons.org/ns#" xmlns:rdf="http://www.w3.org/1999/02/22-rdf-syntax-ns#" xmlns:svg="http://www.w3.org/2000/svg" xmlns="http://www.w3.org/2000/svg" xmlns:sodipodi="http://sodipodi.sourceforge.net/DTD/sodipodi-0.dtd" xmlns:inkscape="http://www.inkscape.org/namespaces/inkscape" inkscape:version="1.0 (4035a4fb49, 2020-05-01)" height="106.775mm" width="455.73395mm" sodipodi:docname="2019_Logo_rgb_RA_Bug-LeftText_color.svg" xml:space="preserve" viewBox="0 0 1722.4589 403.55906" y="0px" x="0px" id="Layer_1" version="1.1"><metadata id="metadata24"><rdf:RDF><cc:Work rdf:about=""><dc:format>image/svg+xml</dc:format><dc:type rdf:resource="http://purl.org/dc/dcmitype/StillImage"/><dc:title/></cc:Work></rdf:RDF></metadata><defs id="defs22"/><sodipodi:namedview inkscape:current-layer="Layer_1" inkscape:window-maximized="1" inkscape:window-y="-8" inkscape:window-x="-8" inkscape:cy="198" inkscape:cx="857.45001" inkscape:zoom="0.61169747" units="mm" showgrid="false" id="namedview20" inkscape:window-height="705" inkscape:window-width="1366" inkscape:pageshadow="2" inkscape:pageopacity="0" guidetolerance="10" gridtolerance="10" objecttolerance="10" borderopacity="1" bordercolor="#666666" pagecolor="#ffffff"/>
<style id="style2" type="text/css">
	.st0{fill:#CD163F;}
	.st1{fill:url(#SVGID_1_);}
</style>

<linearGradient gradientTransform="matrix(1,0,0,-1,0,396)" y2="393.0351" x2="275.35999" y1="32.851299" x1="67.407097" gradientUnits="userSpaceOnUse" id="SVGID_1_">
	<stop id="stop8" style="stop-color:#CD163F" offset="0.28"/>
	<stop id="stop10" style="stop-color:#F58025" offset="0.9"/>
</linearGradient>


<g transform="translate(3.7795076,3.7795304)" id="g75"><g id="g6">
	<path class="st0" d="m 918.5,249.6 c -38.5,0 -61.5,20.2 -61.5,54.1 0,33.7 23,53.9 61.5,53.9 38.6,0 61.7,-20.1 61.7,-53.9 0,-33.9 -23.1,-54.1 -61.7,-54.1 z m 0,78 c -11.3,0 -18.9,-9.7 -18.9,-24.2 0,-14.6 7.6,-24.3 18.9,-24.3 11.5,0 18.9,9.6 18.9,24.3 0,15 -7.2,24.2 -18.9,24.2 z m 485.9,12.5 c 0,8.3 6.6,15 14.8,15 H 1448 V 252.2 h -43.6 z m 0,-121.7 h 43.6 v 21.3 h -43.6 z m 122.5,31.2 c -38.5,0 -61.5,20.2 -61.5,54.1 0,33.7 23,53.9 61.5,53.9 38.6,0 61.7,-20.1 61.7,-53.9 0,-33.9 -23.1,-54.1 -61.7,-54.1 z m 0,78 c -11.3,0 -18.9,-9.7 -18.9,-24.2 0,-14.6 7.6,-24.3 18.9,-24.3 11.5,0 18.9,9.6 18.9,24.3 0.1,15 -7.2,24.2 -18.9,24.2 z M 711.3,86.3 c -38.5,0 -61.5,20.2 -61.5,54.1 0,33.7 23,53.9 61.5,53.9 38.6,0 61.7,-20.1 61.7,-53.9 0,-33.9 -23,-54.1 -61.7,-54.1 z m 0,78.1 c -11.3,0 -18.9,-9.7 -18.9,-24.2 0,-14.6 7.6,-24.3 18.9,-24.3 11.5,0 18.9,9.6 18.9,24.3 0.1,14.9 -7.2,24.2 -18.9,24.2 z m 609.4,1.1 c -4.7,0.1 -24.2,1.1 -41.4,1.1 -17.7,0 -23.9,-1.8 -27.4,-13.2 h 69.8 c 1.8,0 3.3,-1.5 3.3,-3.3 v -8 c 0,-35.4 -18.8,-55.3 -54.8,-55.8 -40.2,-0.5 -59,20.6 -59,52.4 0,34.9 18.4,55.8 62.3,55.8 31.4,0 45.6,-12.8 48.4,-27.5 0,-0.6 -0.6,-1.5 -1.2,-1.5 z m -50.3,-55.3 c 11.6,0 16.8,9.5 16.8,21.3 h -35.8 c 0,-11.9 4,-21.3 19,-21.3 z m 113.2,-55 h -28.4 c -8.2,0 -14.8,6.7 -14.8,15 v 121.6 h 43.2 z M 834.9,193.5 c 17,1.6 36.1,-1.9 43.4,-3.4 1.8,-0.4 3,-1.9 3,-3.8 v -25.1 c 0,0 -8,0.9 -27,0.9 -16.4,0 -26.7,-8.5 -26.7,-22.2 0,-13.8 9.6,-22.3 25.1,-22.3 17.9,0 28.5,2.2 28.5,2.2 V 94.4 c 0,-1.8 -1.2,-3.4 -3,-3.8 -7.2,-1.6 -26.1,-5.2 -41,-4.3 -32,1.9 -51.9,20.6 -51.9,53.8 0,31.5 18.8,50.6 49.6,53.4 z m 429.9,58.3 v 13.3 c -6.2,-9.5 -15.7,-15.8 -29.9,-15.8 -32.6,0 -51,20.2 -51,53.9 v 0.4 c 0,33.7 18.4,53.9 51,53.9 14.3,0 23.7,-6.3 29.9,-15.8 v 2.3 c 0,6.1 4.9,11.1 10.9,11.1 h 30.2 V 251.8 Z m -19,75.8 c -11.3,0 -18.9,-9.7 -18.9,-24.2 0,-14.4 7.6,-24.2 18.9,-24.2 11.7,0 18.9,9.3 18.9,24.2 0.1,14.9 -7.2,24.2 -18.9,24.2 z m -81.2,-238.7 -12.2,67.3 -13.6,-67.3 h -49.1 l -13.6,67.3 -12.2,-67.3 H 1023 v 0 l -42.6,-0.3 c -6.4,0 -12.6,3.9 -16,10.1 l -24.2,35.2 V 54.8 h -26.4 c -8.2,0 -14.8,6.7 -14.8,15 v 121.6 h 41.2 v -51.2 l 28.2,41.1 c 3.4,6.2 9.6,10.1 16,10.1 l 42.7,0.3 -41.7,-55 37.6,-47.8 24.6,102.8 h 46 c 5.1,0 9.4,-3.7 10.3,-8.9 l 8.8,-61 h 3.4 l 8.8,61 c 0.9,5.1 5.2,8.9 10.3,8.9 h 46 l 24.6,-102.9 z m -443,207.8 c 0,17.6 -5.6,26.6 -16.8,26.6 -6.9,0 -14,-2.3 -14,-19.3 v -51.8 h -41.2 v 58.7 c 0,29.6 14.8,45.8 41.6,45.8 13.5,0 25.1,-4.8 33.6,-13.6 v 0.8 c 0,6.1 4.9,11.1 10.9,11.1 h 27.1 V 252.2 h -41.2 z m 410.5,-46.9 c -14.3,0 -26.7,6.1 -35.3,17.4 -7.1,-11.2 -18.8,-17.4 -33.7,-17.4 -12.5,0 -23.7,4.8 -32,13.5 v -11.1 h -37.6 v 102.9 h 40.8 v -49.6 c 0,-13.3 6,-21.9 15.4,-21.9 6.7,0 12.8,2.3 12.8,18.7 v 52.8 h 41 v -49.6 c 0,-13.5 5.8,-21.9 15.2,-21.9 6.7,0 12.8,2.3 12.8,18.7 v 52.8 h 40.8 v -59.7 c 0,-29.4 -14.3,-45.6 -40.2,-45.6 z m 541.4,-0.2 c -13.5,0 -25.1,4.8 -33.6,13.7 v -11.1 h -38 v 102.9 h 41.2 v -49.6 c 0,-13.6 6.6,-22.5 16.8,-22.5 6.9,0 14,2.3 14,19.3 v 52.8 h 41 v -59.7 c 0,-29.6 -14.7,-45.8 -41.4,-45.8 z m -309,-31.2 h -41.2 V 340 c 0,8.3 6.6,15 14.8,15 h 26.4 v -72.6 h 24.9 v -30.3 h -24.9 z m 83,-163.2 h -28.4 c -8.2,0 -14.8,6.7 -14.8,15 v 121.6 h 43.2 z M 550.8,218.4 c -4.4,0 -8.4,2.7 -10,6.8 L 488.9,355.1 H 532 l 9.6,-25.8 h 49.6 l 5.3,14.9 v 0 c 2.9,6.5 9.3,10.8 16.2,10.8 h 33.8 L 591.9,218.3 Z m 1.9,80.4 14.2,-38.6 13.6,38.6 z M 825,218.5 h -43.7 v 121.6 c 0,8.3 6.6,15 14.8,15 H 825 v -72.6 h 24.9 V 252.2 H 825 Z M 629.9,139.2 c -4.4,-5.6 -10.3,-9.7 -19.2,-11.3 v -0.4 c 19.1,-2.3 30.5,-15.3 30.5,-36.3 0,-26.3 -18.8,-36.5 -49.3,-36.5 h -73.8 v 136.9 h 43.6 v -49.8 h 12 c 6,0 12.1,1 13.8,7.1 l 12.3,35.8 c 0.7,4 4.1,6.9 8,6.9 h 40.3 L 633,145.9 c -0.5,-2.5 -1.6,-4.7 -3.1,-6.7 z m -50.3,-26 h -17.2 v -29 h 17.9 c 8.9,0 17.4,1.8 17.4,14.1 -0.1,13.7 -9,14.9 -18.1,14.9 z" id="path4"/>
</g><path style="fill:url(#SVGID_1_)" class="st1" d="M 112.7,122.7 271.2,5.3 C 273.5,3.6 272.3,0 269.5,0 h -130 C 124.5,0 110,6 99.4,16.6 L 16.6,99.3 C 6,110 0,124.4 0,139.5 v 117 c 0,15.1 6,29.5 16.6,40.2 l 82.7,82.7 C 110,390 124.5,396 139.5,396 H 252 c 3.1,0 4.1,-4.2 1.2,-5.6 L 29.7,285 C 20.4,280.6 14.4,271.2 14.4,260.9 v -56.1 c 0,-5.9 2.8,-11.4 7.5,-14.9 L 54.1,166 v -43.4 h 58.6 z" id="path13"/><path class="st0" d="m 266.8,167.9 -15.3,41.6 h 29.9 z m -128.6,1.7 c 0,-13.3 -9.1,-15.2 -18.7,-15.2 h -19.3 v 31.4 h 18.6 c 9.8,-0.1 19.4,-1.4 19.4,-16.2 z" id="path15"/><path class="st0" d="m 381.6,101.6 -77,-77 c -4.3,-4.3 -11.1,-4.9 -16.2,-1.4 L 140.2,123 c 28.1,1.8 45.1,13.1 45.1,39.1 0,22.6 -12.2,36.7 -32.9,39.2 v 0.4 c 9.6,1.8 16,6.2 20.7,12.2 1.7,2.1 2.8,4.6 3.4,7.1 l 11.7,35.5 50.4,-126.2 c 1.8,-4.4 6.1,-7.3 10.8,-7.3 h 44.3 l 58.9,147.4 h -36.4 c -7.4,0 -14.3,-4.7 -17.4,-11.7 v 0 l -5.7,-16.1 h -53.5 l -10.4,27.8 h -79.9 c -4.3,0 -7.9,-3.1 -8.6,-7.5 l -13.3,-38.6 c -1.8,-6.6 -8.4,-7.7 -14.9,-7.7 H 99.6 v 53.7 H 54.1 v -89.4 l -27.2,18.3 c -2.5,1.7 -3.9,4.5 -3.9,7.5 v 56.9 c 0,3.7 2.2,7 5.5,8.4 L 285,379.4 c 4.8,2.1 10.3,1 14,-2.6 l 82.6,-82.3 c 9.3,-9.2 14.5,-21.8 14.5,-34.9 V 136.4 c 0,-13.1 -5.2,-25.6 -14.5,-34.8 z" id="path17"/></g>
</svg>