<svg width="66" height="96" viewBox="0 0 66 96" fill="none" xmlns="http://www.w3.org/2000/svg">
<path d="M34.033 2.5415C38.6527 1.75518 56.3532 1.55859 64.626 1.55859V29.94L53.5683 30.6772C52.053 32.8887 48.6292 37.7787 47.0565 39.6462C45.4839 41.5137 37.7189 45.5846 34.033 47.3866L35.5074 53.8984C35.0159 55.086 33.5907 57.4614 31.8215 57.4614C30.0522 57.4614 28.627 56.3147 28.1356 55.7413C27.767 56.3147 26.5629 57.5843 24.6954 58.0757C22.8279 58.5672 21.3781 56.7242 20.8866 55.7413L17.5693 57.4614C16.5455 57.2566 14.4732 56.2573 14.3749 53.8984C14.2766 51.5394 15.4806 49.3115 16.095 48.4924C15.3987 46.7313 13.908 43.6024 13.5148 45.1751C13.1217 46.7477 9.99277 49.5162 8.47747 50.7039L10.9347 53.8984C11.0576 54.226 10.9838 55.0533 9.70607 55.7413C8.42829 56.4294 6.96214 55.4546 6.38879 54.8813C4.5868 52.3421 1.03195 45.8631 1.22853 40.2605C1.47426 33.2573 1.84285 28.0971 8.47747 17.2851C15.1121 6.47313 28.2585 3.52441 34.033 2.5415Z" fill="#DA9267"/>
<path d="M13.3917 85.3514L11.0573 89.1602C11.8355 90.4298 13.3917 93.0918 13.3917 93.5833C13.3917 94.0747 15.4395 90.8393 16.4633 89.1602L13.3917 85.3514Z" fill="#FFDF6F"/>
<path d="M24.818 81.5427L23.0979 83.1399V84.7371L24.2037 85.3514H26.2924V83.1399L24.818 81.5427Z" fill="#FFDF6F"/>
<path d="M20.8864 65.6933L16.4633 70.8535L18.6749 72.205L20.2721 74.7852L23.0979 70.8535L22.115 69.0106L20.8864 65.6933Z" fill="#FFDF6F"/>
<path d="M11.0573 53.5298L12.286 59.673L14.7432 56.2328L13.3917 51.564L15.7261 48.001L13.3917 44.5608L8.47721 50.8268L11.0573 53.5298Z" fill="#FFDF6F"/>
<path d="M5.89708 64.2189H3.93127L2.21118 66.5533L3.93127 67.9048L5.89708 66.5533V64.2189Z" fill="#FFDF6F"/>
<path fill-rule="evenodd" clip-rule="evenodd" d="M64.2153 0.135326C64.0247 0.284236 62.9168 0.31323 57.2121 0.318268C50.6352 0.323919 50.0366 0.33682 48.4694 0.506248C48.0639 0.550111 47.5111 0.607244 47.2408 0.633169C46.9705 0.659216 46.4729 0.710572 46.135 0.747431C45.4138 0.826186 42.3369 1.02719 40.2375 1.13285C39.4267 1.17364 38.2103 1.23557 37.5346 1.27046C36.8588 1.30547 35.8083 1.34885 35.2002 1.36703C33.5323 1.41691 32.657 1.53339 31.3502 1.87912C30.6971 2.05187 29.9969 2.22105 29.7942 2.25496C29.33 2.33273 28.199 2.60734 27.6748 2.76952C27.4552 2.83746 27.2755 2.86989 27.2755 2.84176C27.2755 2.8135 26.9575 2.93354 26.569 3.1085C26.1804 3.28333 25.5308 3.52427 25.1254 3.64381C24.5066 3.82614 21.787 5.04507 20.948 5.516C20.705 5.65238 20.5342 5.74317 18.6136 6.75692C17.3164 7.44164 17.1104 7.56708 16.4973 8.04539C16.2119 8.26814 15.8315 8.52652 15.652 8.61965C15.174 8.86759 14.4568 9.48547 13.4369 10.5277C12.941 11.0345 12.4758 11.5045 12.4032 11.5721C11.4325 12.4761 9.85136 14.105 9.23975 14.8311C8.81439 15.3362 8.35144 15.8862 8.21101 16.0533C8.07057 16.2205 7.86613 16.4969 7.75691 16.6676C7.64756 16.8384 7.43328 17.1157 7.28056 17.284C7.12797 17.4522 7.00302 17.651 7.00302 17.7257C7.00302 17.8004 6.88703 17.9665 6.74525 18.0947C6.60334 18.2231 6.26277 18.7155 5.98841 19.1888C5.71394 19.6622 5.36009 20.2058 5.20208 20.3967C4.94161 20.7112 4.65707 21.269 3.7179 23.3055C3.54651 23.6772 3.331 24.1378 3.23885 24.3291C3.1467 24.5204 3.07139 24.7608 3.07139 24.8634C3.07139 24.966 2.99091 25.2241 2.89262 25.4371C2.66287 25.9343 2.36099 26.7793 2.15962 27.4885C2.07239 27.7957 1.92962 28.1806 1.84239 28.3438C1.75503 28.5068 1.58708 29.1955 1.46926 29.8738C1.35131 30.5522 1.18323 31.3561 1.09575 31.6602C0.892776 32.3647 0.904945 32.2089 0.795719 35.5304C0.662904 39.5678 0.67261 42.0177 0.82582 43.1479C1.08088 45.0298 1.36248 46.3314 1.59642 46.71C1.72591 46.9195 1.87016 47.3372 1.91685 47.6381C1.96366 47.9391 2.07669 48.2944 2.1681 48.4277C2.25939 48.5609 2.33507 48.7821 2.33606 48.9192C2.33778 49.1704 2.61016 50.0347 2.81178 50.4292C2.87186 50.5465 3.07606 50.9686 3.26552 51.3669C3.45509 51.7652 3.84826 52.4537 4.13932 52.8969C4.43051 53.3401 4.66874 53.7605 4.66886 53.8313C4.66898 53.902 4.9039 54.1702 5.19103 54.4274C5.47804 54.6844 5.74895 54.9332 5.79294 54.9803C6.73346 55.9855 7.01223 56.2226 7.40343 56.3491C7.65751 56.4312 7.95349 56.5866 8.06136 56.6945C8.32429 56.9574 9.71522 56.9273 10.1393 56.6495C10.3845 56.4888 10.4501 56.4832 10.4912 56.6189C10.8442 57.7839 10.9815 58.6548 11.0598 60.2263C11.1602 62.2392 11.3121 62.8069 11.8435 63.1551C12.1593 63.362 12.1887 63.3603 12.6351 63.1095C13.2274 62.7766 13.3898 62.5076 13.473 61.7217C13.5348 61.1381 14.0169 59.4739 14.4784 58.2505C14.6597 57.77 14.6804 57.7558 14.9819 57.9022C15.1548 57.9861 15.7167 58.1212 16.2304 58.2021C17.0402 58.3298 17.2611 58.3216 17.8891 58.1403C18.6424 57.9229 19.2285 57.6169 19.821 57.1316C20.238 56.7901 20.4836 56.773 20.7493 57.067C20.9898 57.3331 22.3488 58.3636 22.7242 58.5645C23.1286 58.7808 24.7918 58.8114 25.4061 58.6137C26.2588 58.3395 27.3983 57.4943 27.3983 57.1364C27.3983 57.0516 27.4928 56.9294 27.6082 56.8649C27.7734 56.7724 27.9193 56.8517 28.294 57.2379C28.932 57.8953 29.5795 58.3216 29.9402 58.3216C30.1032 58.3216 30.4011 58.4067 30.6025 58.5109C30.8039 58.615 31.0284 58.6632 31.1016 58.618C31.1748 58.5728 31.5187 58.5436 31.8659 58.553C33.1786 58.5889 35.4417 56.9681 35.728 55.787C35.9985 54.6715 36.1323 53.6263 36.1742 52.3013C36.2107 51.1495 36.1759 50.7642 35.986 50.2169C35.8578 49.8475 35.753 49.443 35.753 49.3179C35.753 49.1928 35.6212 48.9144 35.4601 48.6993C35.2991 48.4841 35.131 48.1888 35.0868 48.0428C35.0184 47.8175 35.0764 47.7547 35.4718 47.6259C35.7279 47.5426 36.352 47.2693 36.8588 47.0186C37.3656 46.768 38.2226 46.354 38.7632 46.0989C39.3038 45.8438 39.829 45.5879 39.9304 45.5303C40.3406 45.2969 41.3726 44.8066 41.4533 44.8066C41.5964 44.8066 42.9092 43.9383 43.4002 43.519C43.6529 43.303 44.106 42.9996 44.407 42.8448C44.7081 42.69 45.2565 42.294 45.6257 41.9649C45.995 41.6357 46.3548 41.3664 46.4251 41.3664C46.4953 41.3664 46.597 41.2974 46.651 41.2128C46.7051 41.1284 47.1087 40.788 47.5479 40.4565C47.9872 40.1249 48.5953 39.5752 48.8994 39.2347C49.2035 38.8944 49.6221 38.4375 49.8296 38.2193C50.4179 37.6011 50.8844 36.953 51.2063 36.3072C51.3686 35.9813 51.5434 35.7147 51.5948 35.7147C51.646 35.7147 51.7904 35.4797 51.9157 35.1925C52.0409 34.9054 52.2907 34.4492 52.4707 34.1789C52.6507 33.9086 52.9416 33.411 53.1173 33.0731C53.808 31.7441 53.8101 31.7433 56.0869 31.822C57.3792 31.8666 62.716 31.639 62.9187 31.5305C63.0357 31.4678 63.2881 31.4466 63.4794 31.4832C63.701 31.5256 64.0039 31.4582 64.314 31.2978C64.5817 31.1592 64.8951 31.0459 65.0105 31.0459C65.1258 31.0459 65.3379 30.8555 65.4817 30.6228C65.7086 30.2556 65.7418 30.0239 65.7319 28.872C65.7258 28.1418 65.7294 27.4061 65.7399 27.2371C65.7506 27.0682 65.7569 26.847 65.7538 26.7457C65.7136 25.3803 65.7263 23.6989 65.7859 22.5069C65.8442 21.3365 65.9824 16.8092 65.9865 15.9337C65.987 15.8323 65.9914 14.8924 65.9963 13.845C66.0079 11.4389 65.9955 10.6589 65.9094 8.37761C65.871 7.36399 65.8219 5.40125 65.7999 4.01596C65.778 2.63068 65.7537 1.32071 65.7459 1.10484C65.7179 0.330678 64.7499 -0.282409 64.2153 0.135326ZM62.783 2.40547L63.7044 2.41874L63.7187 4.16954C63.7266 5.13242 63.7784 6.61145 63.8338 7.45614C63.9308 8.93271 63.941 9.3169 63.8978 9.85197C63.8869 9.98712 63.8835 11.4523 63.8901 13.1078C63.8968 14.7634 63.867 17.6661 63.8239 19.5582C63.7807 21.4503 63.7361 24.4425 63.725 26.2075L63.7044 29.4167L62.5372 29.5145C60.3567 29.6975 60.0198 29.7089 56.6221 29.7152C52.8234 29.7223 52.907 29.7048 52.2414 30.6237C52.0467 30.8926 51.8647 31.1665 51.8371 31.2328C51.7922 31.3398 50.8488 32.9343 50.461 33.5581C50.3793 33.6897 50.1604 34.0159 49.9745 34.283C49.7886 34.5501 49.6366 34.8183 49.6366 34.879C49.6366 35.0435 48.8745 36.1978 48.3964 36.7576C47.6268 37.6586 45.8754 39.277 45.667 39.2796C45.5865 39.2806 45.1889 39.5917 44.7835 39.9708C44.378 40.3498 43.5487 40.9903 42.9405 41.3938C42.3324 41.7974 41.7518 42.197 41.6505 42.2816C41.332 42.5479 39.7107 43.3322 39.479 43.3322C39.4201 43.3322 39.0691 43.532 38.6989 43.7763C37.9747 44.2541 36.6189 44.9295 36.3837 44.9295C36.3045 44.9295 36.0259 45.0644 35.7648 45.2292C35.4931 45.4008 34.8531 45.6118 34.2681 45.7228C33.706 45.8294 33.2159 45.9584 33.1788 46.0094C33.0486 46.189 32.492 46.491 32.0057 46.6461C31.7354 46.7323 31.2029 46.9895 30.8224 47.2177C30.4419 47.4458 30.0954 47.6324 30.0524 47.6324C30.0094 47.6324 29.5627 47.8822 29.0597 48.1877C28.5567 48.493 27.908 48.854 27.6181 48.9897C26.9639 49.2963 26.2601 49.7241 25.9533 50.0017C25.8252 50.1177 25.6851 50.2126 25.6421 50.2126C25.5991 50.2126 25.011 50.5996 24.3352 51.0726C23.6596 51.5456 23.0771 51.9327 23.041 51.9327C23.0049 51.9327 22.9753 51.8722 22.9753 51.7985C22.9753 51.5819 22.5085 51.0507 22.1444 50.8532C21.1786 50.3288 21.1051 50.3087 20.3549 50.3616C19.9191 50.3924 19.3503 50.5337 19.0177 50.6938C18.2902 51.0439 16.8176 52.4479 16.4872 53.1065C16.243 53.5934 15.9642 54.8257 15.9449 55.5037C15.9363 55.8053 15.9089 55.8273 15.7009 55.7003C15.4421 55.5423 15.1793 55.0409 15.0227 54.4063C14.9621 54.1609 14.9798 53.5361 15.066 52.8705C15.25 51.4513 15.3108 51.224 15.7735 50.2231C15.9278 49.8893 17.2834 48.4925 17.453 48.4925C17.5135 48.4925 17.6463 48.3313 17.7483 48.1341C18.2149 47.2318 21.9178 43.5906 22.8322 43.1349C23.1883 42.9575 23.5725 42.6667 23.686 42.4886C24.0365 41.939 25.9291 40.1631 26.2504 40.0825C26.569 40.0025 26.9069 39.3919 26.9069 38.896C26.9069 38.7492 27.0727 38.3596 27.2755 38.0302C27.4782 37.7007 27.6441 37.3484 27.6441 37.2474C27.6441 37.1464 27.7546 36.9691 27.8898 36.8534C28.0249 36.7377 28.1355 36.5763 28.1355 36.4948C28.1355 36.4133 28.3232 36.0248 28.5528 35.6314C28.7823 35.238 29.0071 34.7028 29.0523 34.442C29.0979 34.1795 29.2681 33.8442 29.4337 33.6908C29.5982 33.5383 29.7327 33.3342 29.7327 33.2372C29.7327 33.1402 29.7804 33.0083 29.8386 32.9441C29.9506 32.8207 30.1775 32.0496 30.3429 31.2302C30.3974 30.9599 30.5603 30.1866 30.7049 29.5117C30.8609 28.7835 30.9488 28.0102 30.9213 27.6097C30.8935 27.2074 30.9437 26.7698 31.0453 26.5266C31.463 25.5269 30.6876 24.1551 29.6976 24.1425C28.1064 24.1222 24.8635 24.307 24.2154 24.4549C23.7825 24.5537 23.3554 24.6066 23.2663 24.5723C23.0718 24.4978 21.3693 24.7049 19.8422 24.9889C18.704 25.2005 17.6382 25.7007 17.1378 26.2579C17.0034 26.4076 16.5618 26.7847 16.1563 27.0961C15.7509 27.4075 15.3362 27.7518 15.2349 27.861C15.1335 27.9704 14.7203 28.3309 14.3167 28.6621C13.9131 28.9933 13.4431 29.4301 13.2724 29.6327C13.1016 29.8353 12.8374 30.1281 12.6854 30.2834C12.5335 30.4386 12.409 30.6144 12.409 30.674C12.409 30.7336 12.2773 30.8859 12.1162 31.0126C11.9553 31.1393 11.6833 31.5198 11.5117 31.8581C11.3403 32.1965 10.9741 32.7591 10.698 33.1084C10.4219 33.4577 10.0818 34.0488 9.94215 34.4221C9.80258 34.7952 9.6232 35.1697 9.54358 35.2541C9.46397 35.3385 9.37944 35.5734 9.35561 35.7761C9.33189 35.9789 9.2685 36.2277 9.2148 36.329C9.04194 36.6555 8.86145 39.1713 8.89757 40.7521C8.94106 42.653 9.05151 43.5454 9.35069 44.4153C9.47859 44.7868 9.58315 45.1903 9.58315 45.3119C9.58315 45.4334 9.74017 45.7992 9.93208 46.1248C10.3633 46.8561 10.4678 47.3362 10.2373 47.5275C10.143 47.6058 9.70724 48.1291 9.26887 48.6904C8.22195 50.0311 8.11296 50.1047 7.49189 49.8908C6.90792 49.6895 6.15674 49.6488 5.39572 49.7769C4.84038 49.8704 4.83042 49.8662 4.66001 49.4586C4.56504 49.2313 4.5041 48.9932 4.5245 48.9293C4.54502 48.8655 4.5111 48.6996 4.44918 48.5607C4.30076 48.2273 4.08341 47.6096 3.80673 46.7346C3.68263 46.342 3.50829 45.9332 3.41934 45.826C3.33038 45.7188 3.24623 45.4042 3.23222 45.1268C3.21834 44.8493 3.14757 44.3016 3.07508 43.9097C2.8984 42.9553 2.821 42.2362 2.76829 41.0593C2.74396 40.5187 2.71275 40.0487 2.69887 40.0149C2.68511 39.9811 2.68339 39.9025 2.69531 39.8401C2.72185 39.7013 2.80908 37.2951 2.88059 34.7318C2.90983 33.6844 2.99116 32.6615 3.06132 32.4588C3.13147 32.2561 3.21342 31.8967 3.24327 31.6602C3.27325 31.4237 3.33383 31.092 3.37793 30.923C3.42204 30.7541 3.4997 30.2841 3.55056 29.8787C3.60143 29.4732 3.81828 28.6992 4.03243 28.1586C4.24658 27.618 4.42203 27.0899 4.42227 26.9853C4.42264 26.8805 4.48752 26.7302 4.5664 26.6513C4.73963 26.4781 5.03549 25.7169 5.12665 25.2099C5.16314 25.0072 5.28551 24.7031 5.39867 24.5341C5.51183 24.3652 5.76185 23.84 5.9545 23.3669C6.14703 22.8939 6.39926 22.3963 6.51488 22.2612C6.63049 22.126 6.75778 21.8761 6.79784 21.7058C6.83789 21.5355 6.99687 21.2608 7.15119 21.0952C7.51314 20.7066 7.98592 20.0095 7.98592 19.8642C7.98592 19.8021 8.0965 19.692 8.23165 19.6196C8.3668 19.5472 8.47738 19.409 8.47738 19.3124C8.47738 19.2158 8.64324 18.9478 8.84597 18.7169C9.04869 18.4861 9.21456 18.2358 9.21456 18.1609C9.21456 18.0859 9.38042 17.866 9.58315 17.6722C9.78587 17.4786 9.95174 17.26 9.95174 17.1865C9.95174 17.1132 10.1456 16.8428 10.3826 16.5856C10.6196 16.3285 11.1864 15.6933 11.642 15.1742C12.0977 14.6551 12.5014 14.2266 12.5392 14.222C12.5771 14.2174 13.1452 13.6746 13.8018 13.0157C14.4582 12.3568 15.2013 11.6113 15.4531 11.3588C15.7047 11.1064 15.9681 10.899 16.0384 10.898C16.1087 10.8972 16.4105 10.6752 16.7092 10.4049C17.0079 10.1346 17.3151 9.9134 17.3917 9.9134C17.4684 9.9134 17.6265 9.80811 17.743 9.67935C18.0105 9.38386 19.7754 8.35304 20.1938 8.24811C20.3665 8.20474 20.5723 8.09171 20.6508 7.99698C20.7294 7.90225 20.8669 7.82473 20.9562 7.82473C21.0456 7.82473 21.6885 7.52617 22.3849 7.16126C23.0813 6.79636 23.7892 6.45738 23.9582 6.40799C24.1271 6.3586 24.4217 6.20797 24.6128 6.07331C24.8039 5.93865 25.1886 5.77721 25.4677 5.71443C25.7467 5.65177 26.2464 5.46415 26.5781 5.29755C26.9098 5.13095 27.2439 5.00575 27.3204 5.01939C27.3971 5.0329 27.6533 4.96004 27.8898 4.85721C28.1263 4.75449 28.5833 4.6347 28.9055 4.59096C29.2276 4.54735 29.6534 4.42768 29.8517 4.32521C30.0498 4.22274 30.3462 4.13883 30.5102 4.13883C30.6742 4.13883 30.9949 4.06167 31.2228 3.96743C31.7799 3.73706 34.4595 3.41332 35.753 3.42032C36.3274 3.42339 37.3226 3.36381 37.9646 3.288C38.6065 3.21219 39.27 3.15911 39.4389 3.17017C40.1529 3.21649 43.8925 3.01537 44.1521 2.91671C44.3078 2.85749 44.9834 2.81006 45.6536 2.81117C46.3238 2.81227 47.3698 2.74617 47.9779 2.66434C48.5861 2.58252 49.7667 2.49725 50.6016 2.47476C51.4364 2.4524 52.1367 2.41678 52.1579 2.39564C52.1915 2.3621 60.281 2.36959 62.783 2.40547ZM28.89 26.2542C29.0236 26.2542 29.1033 26.3023 29.0671 26.3609C29.0308 26.4195 28.9758 26.9763 28.9447 27.5982C28.9137 28.22 28.8276 28.802 28.7533 28.8916C28.6252 29.0459 28.4392 29.9034 28.2993 30.9845C28.2643 31.2548 28.1026 31.7178 27.9398 32.0136C27.7771 32.3093 27.6441 32.6271 27.6441 32.72C27.6441 32.8129 27.5948 32.8888 27.5345 32.8888C27.4743 32.8888 27.3887 33.0332 27.3445 33.2095C27.2092 33.7484 26.764 34.611 26.6556 34.5441C26.5286 34.4655 26.5809 34.1788 26.8316 33.5788C26.9382 33.3238 27.0257 32.995 27.0261 32.8483C27.0264 32.7017 27.0291 32.3771 27.0322 32.127C27.0398 31.4999 26.7302 31.1688 26.1365 31.1688C25.7948 31.1688 25.5899 31.2514 25.3861 31.4714C25.1036 31.7761 24.8182 32.5298 24.8182 32.9707C24.8182 33.1014 24.7613 33.2652 24.6916 33.3348C24.6167 33.4098 24.5431 34.5011 24.5109 36.0107L24.4567 38.5601L24.1153 38.9965C23.4311 39.8712 21.5513 41.6542 21.1323 41.8259C20.8958 41.9229 20.2995 42.4259 19.8073 42.9436C18.9717 43.8226 18.9027 43.8688 18.7684 43.6394C18.5865 43.3285 18.5443 39.2459 18.7088 37.8648C18.7732 37.3242 18.8216 36.6142 18.8164 36.2869C18.8113 35.9596 18.8926 35.379 18.9974 34.9968C19.1021 34.6146 19.2337 34.1359 19.2897 33.9332C19.3457 33.7305 19.5345 33.2926 19.7091 32.9602C19.8836 32.6278 20.0265 32.2573 20.0265 32.1369C20.0265 32.0166 20.1055 31.874 20.2021 31.8199C20.4357 31.6891 20.9191 30.585 20.9401 30.1344C20.9603 29.7014 20.5111 29.2029 20.1005 29.2029C19.5238 29.2029 19.0237 29.7136 18.3557 30.9845C18.0006 31.6602 17.619 32.5725 17.5078 33.0117C17.3966 33.4509 17.2307 33.9762 17.1391 34.1789C16.9731 34.5464 16.8485 35.2976 16.7683 36.4151C16.745 36.7395 16.6888 37.2536 16.6434 37.5577C16.5123 38.4361 16.4988 42.8706 16.6262 43.2094C16.6898 43.3783 16.7324 43.7018 16.7209 43.9284C16.7093 44.1548 16.75 44.4036 16.8113 44.4812C16.8727 44.5588 16.9616 44.8364 17.0088 45.0983C17.0832 45.5107 17.0505 45.6202 16.7636 45.9197C16.5816 46.1098 16.3704 46.3888 16.2944 46.5398C16.2185 46.6908 16.0929 46.8353 16.0153 46.8609C15.8095 46.9287 15.0326 45.565 14.9501 44.9909C14.8197 44.0843 14.4032 41.9214 14.3204 41.7209C14.2153 41.4667 13.7254 41.2435 13.2722 41.2435C12.8782 41.2435 12.409 41.7258 12.409 42.1307C12.409 42.2626 12.3176 42.7389 12.206 43.1892C12.0944 43.6395 11.954 44.2154 11.8941 44.4687C11.8343 44.7222 11.7409 44.9295 11.6866 44.9295C11.5569 44.9295 11.2232 43.7385 11.0496 42.6565C10.915 41.8179 10.9509 38.0862 11.0997 37.4348C11.1384 37.2659 11.2255 36.8672 11.2934 36.5489C11.3612 36.2306 11.5483 35.7607 11.7089 35.5046C11.8696 35.2484 12.0381 34.8893 12.0832 34.7062C12.1284 34.5233 12.3106 34.2192 12.4883 34.0305C12.6658 33.8419 13.0457 33.3281 13.3324 32.8888C13.6191 32.4496 14.0275 31.8967 14.2398 31.6602C15.2484 30.5372 15.5945 30.1859 15.6922 30.1859C15.7504 30.1859 16.0445 29.9318 16.3458 29.6212C16.6471 29.3106 17.3082 28.7173 17.815 28.3028C18.3218 27.8883 18.7549 27.5066 18.7774 27.4546C18.8 27.4025 18.8974 27.36 18.9941 27.36C19.0908 27.36 19.2659 27.3106 19.3832 27.2503C19.8135 27.0289 22.9458 26.5481 23.3119 26.6473C23.3633 26.6611 23.6264 26.6265 23.8967 26.5702C24.5024 26.4439 24.619 26.4331 26.5997 26.3197C27.4782 26.2695 28.2216 26.2047 28.252 26.176C28.2822 26.1472 28.3835 26.1531 28.4771 26.189C28.5706 26.2249 28.7563 26.2542 28.89 26.2542ZM13.3919 46.7825C13.3919 46.8556 13.5965 47.165 13.8465 47.4701C14.3752 48.1153 14.4412 48.6644 14.0541 49.197C13.7195 49.6574 13.3065 50.8398 13.1415 51.8098C13.0668 52.249 12.9673 52.7466 12.9205 52.9156C12.8369 53.2169 12.881 53.6858 13.1372 55.2186C13.2475 55.8788 13.2333 56.0674 13.0349 56.5701L12.8044 57.1544L12.5983 56.4172C12.1441 54.7913 11.2874 53.0555 10.4275 52.0185L9.83625 51.3057L10.3813 50.6056C10.6809 50.2204 11.152 49.6566 11.4279 49.3525C11.9302 48.7993 12.2435 48.3272 12.8348 47.2331C13.1292 46.6886 13.3919 46.4761 13.3919 46.7825ZM33.1803 48.877C33.2277 49.0548 33.3875 49.3638 33.5353 49.5637C33.9472 50.1207 34.0778 50.7685 34.0624 52.1784C34.0429 53.9879 33.9691 54.7859 33.7888 55.1339C33.5476 55.5996 32.8468 56.2189 32.4694 56.2997C32.2819 56.3399 32.0015 56.4242 31.8464 56.4871C30.6707 56.9634 29.1491 55.7113 29.2232 54.3285C29.2305 54.1933 29.1806 53.7787 29.1123 53.407C29.044 53.0354 28.9586 52.2864 28.9225 51.7426L28.8567 50.7539L29.694 50.2144C30.889 49.4444 32.712 48.4886 32.9183 48.5239C33.0149 48.5404 33.1327 48.6994 33.1803 48.877ZM6.55752 51.7846C6.59069 51.8384 6.99478 52.0706 7.45552 52.3006C7.91614 52.5306 8.44518 52.8796 8.63108 53.076C9.66903 54.1731 9.81659 54.553 9.28324 54.7558C8.84032 54.9241 8.31434 54.6111 7.31104 53.5817C6.33698 52.5825 5.83741 51.8562 6.06103 51.765C6.29041 51.6712 6.49228 51.6792 6.55752 51.7846ZM26.9327 52.2984C26.9622 52.4995 26.9416 52.7345 26.8871 52.8206C26.8324 52.9066 26.787 53.2708 26.7859 53.6299C26.7839 54.3167 26.3697 55.4225 25.9992 55.73C25.8902 55.8204 25.8011 55.9706 25.8011 56.0636C25.8011 56.1567 25.7405 56.2329 25.6664 56.2329C25.5925 56.2329 25.3842 56.338 25.2036 56.4666C24.7408 56.7962 23.617 56.8 23.3124 56.4731C23.1906 56.3425 22.9335 56.154 22.7408 56.0545C22.1183 55.7324 22.1532 55.5071 22.9379 54.7826C23.3301 54.4205 23.8584 53.9899 24.1117 53.8256C24.3652 53.6612 24.5725 53.4758 24.5725 53.4135C24.5725 53.2818 26.532 51.9484 26.7394 51.9389C26.8162 51.9355 26.9032 52.0973 26.9327 52.2984ZM21.0402 52.5951C21.4655 52.918 21.2883 53.2499 20.0576 54.4356C19.5525 54.9222 18.1852 55.7569 18.04 55.6672C17.769 55.4997 18.1923 54.15 18.7103 53.5299C19.5304 52.5482 20.4777 52.1682 21.0402 52.5951ZM3.74714 62.8675C3.70537 62.9351 3.56887 62.9904 3.44379 62.9904C3.16096 62.9904 1.94818 64.144 1.67788 64.6703C1.39898 65.2133 1.27562 66.6882 1.46987 67.1573C1.55391 67.3601 1.91856 67.7545 2.28015 68.0334C2.85036 68.4734 3.06107 68.5572 3.86754 68.6649C4.98781 68.8147 5.50482 68.6544 6.37764 67.8866C7.42714 66.9634 7.62471 65.8657 6.98336 64.5228C6.48429 63.4782 6.03559 63.1345 4.88412 62.9149C3.81951 62.7118 3.84273 62.7128 3.74714 62.8675ZM20.5657 62.8625C20.1794 63.0224 19.7964 63.571 19.7172 64.0778C19.5569 65.102 18.9704 66.6259 18.6265 66.9112C18.518 67.0012 18.4293 67.1433 18.4293 67.2269C18.4293 67.3105 18.1977 67.642 17.9146 67.9636C17.6316 68.2852 17.3079 68.7198 17.1954 68.9296C17.083 69.1393 16.8031 69.4144 16.5736 69.5407C16.0299 69.8401 15.4826 70.355 15.3523 70.6896C15.0966 71.3468 15.795 72.4508 16.4664 72.4508C16.651 72.4508 16.8708 72.5338 16.9549 72.6351C17.0391 72.7365 17.1869 72.8194 17.2835 72.8194C17.5968 72.8194 18.3891 73.3487 18.6523 73.734C18.7935 73.9405 18.9468 74.3583 18.9931 74.6624C19.0393 74.9665 19.1151 75.2705 19.1616 75.3381C19.208 75.4057 19.261 75.7097 19.2793 76.0136C19.2976 76.3176 19.3455 76.6196 19.3857 76.6847C19.426 76.7498 19.4467 76.9849 19.4317 77.2069C19.3999 77.6795 19.8572 78.5593 20.1908 78.6672C20.3149 78.7074 20.597 78.7063 20.8176 78.6649C21.344 78.5662 21.5545 78.1307 21.8018 76.6282C21.9074 75.9862 22.0556 75.1292 22.1311 74.7238C22.2064 74.3184 22.2953 73.8049 22.3285 73.5828C22.3982 73.1165 22.9694 72.4921 23.5467 72.2508C23.7638 72.1601 23.9745 72.0322 24.0152 71.9666C24.0557 71.901 24.1636 71.876 24.2549 71.911C24.516 72.0111 25.2702 71.6423 25.49 71.3069C25.891 70.6949 25.5742 70.2594 23.9582 69.2017C23.1304 68.6599 22.6067 68.1337 22.6067 67.8439C22.6067 67.7018 22.5468 67.5256 22.4738 67.4526C22.4007 67.3795 22.3219 66.9953 22.2984 66.5987C22.2371 65.56 21.7709 63.2071 21.5918 63.0324C21.3746 62.8203 20.8692 62.7366 20.5657 62.8625ZM4.99088 65.2435C4.99911 65.2545 5.0952 65.4388 5.20418 65.6532C5.39977 66.0381 5.39756 66.0469 5.02602 66.3596C4.7932 66.5556 4.4998 66.6763 4.25653 66.6763C3.8098 66.6763 3.30459 66.3756 3.37339 66.1508C3.3987 66.0681 3.45337 65.8461 3.49478 65.6573C3.58582 65.2429 3.96362 65.0623 4.54575 65.1552C4.78226 65.1929 4.98253 65.2327 4.99088 65.2435ZM11.3294 66.7326C11.0727 66.8479 10.8608 67.0688 10.748 67.3385C10.592 67.712 10.5933 67.8174 10.7593 68.2146C10.8631 68.4631 11.0833 68.7916 11.2486 68.9448C11.5066 69.1839 11.6227 69.2099 12.0677 69.1285C12.7723 68.9997 13.1462 68.5542 13.1462 67.8435C13.1462 66.8489 12.2672 66.3116 11.3294 66.7326ZM20.7641 68.8271C20.9584 69.306 21.2152 69.6515 21.6433 70.0099C22.2201 70.4929 22.2383 70.5268 22.0396 70.7464C21.9251 70.8729 21.7657 70.9765 21.6852 70.9765C21.4698 70.9765 21.1968 71.3189 20.7798 72.1123C20.3933 72.8479 20.3946 72.8479 20.0155 72.1437C19.8865 71.9042 19.5557 71.6456 19.0709 71.4054C18.1213 70.9349 18.0725 70.8804 18.3787 70.6302C18.7454 70.3305 19.9037 68.9507 19.9037 68.8135C19.9037 68.6474 20.2665 68.1506 20.3879 68.1506C20.4436 68.1506 20.613 68.4551 20.7641 68.8271ZM7.49447 73.4697C7.0889 73.6746 6.89441 74.3016 6.80594 75.6898C6.76663 76.3073 6.7165 76.831 6.69451 76.8536C6.67252 76.8762 6.33218 76.9088 5.93803 76.9261C5.54389 76.9433 5.04396 76.9663 4.82698 76.9771C4.11966 77.0124 3.64811 77.787 3.92578 78.4576C4.13882 78.9719 4.50459 79.0851 5.68482 79.0018L6.71368 78.9292L6.69438 80.7581C6.67239 82.826 6.75065 83.0815 7.44557 83.2118C7.93076 83.3028 8.42762 83.0412 8.59237 82.6078C8.69902 82.3272 8.86685 80.2401 8.84768 79.4316C8.83589 78.9331 8.70246 78.9906 10.3622 78.7793C11.096 78.6858 11.4299 78.0073 11.0498 77.3822C10.7484 76.8866 10.6517 76.8458 9.72358 76.8235L8.9074 76.8039L8.90236 75.4567C8.8972 74.0611 8.79154 73.6677 8.3598 73.4366C8.05436 73.2732 7.86945 73.2802 7.49447 73.4697ZM23.8379 80.9231C23.4676 81.0509 23.062 81.2841 22.9365 81.4412C22.811 81.5984 22.5887 81.8652 22.4425 82.0342C21.831 82.7406 21.7116 83.0479 21.6579 84.0537C21.6059 85.0255 21.6123 85.0524 21.9943 85.4743C22.2085 85.7109 22.5042 86.0457 22.6514 86.2183C23.0233 86.6544 23.2802 86.7336 24.2404 86.7083C25.3443 86.679 25.7957 86.506 26.4859 85.8479C27.2884 85.0827 27.5593 84.4162 27.542 83.2493C27.5246 82.0782 27.3873 81.6978 26.9419 81.5883C26.7537 81.542 26.2496 81.3192 25.8216 81.0934C24.9264 80.6209 24.7558 80.6063 23.8379 80.9231ZM13.1462 82.5151C12.6631 82.6395 12.1419 83.7364 12.0318 84.86C11.9823 85.3668 11.8243 86.0519 11.6808 86.3824C11.3453 87.1555 10.5724 87.9086 9.99056 88.0295C9.40843 88.1504 9.0557 88.6227 9.04132 89.3002C9.03149 89.7596 9.07904 89.8536 9.44775 90.1046C9.67739 90.261 10.0188 90.3889 10.2067 90.3889C10.4517 90.3889 10.6559 90.5191 10.9291 90.8496C11.4348 91.4612 11.9176 92.4445 11.9176 92.863C11.9176 93.0485 11.9728 93.2344 12.0404 93.2762C12.108 93.3179 12.1633 93.5877 12.1633 93.8759C12.1633 94.6484 12.4896 95.5091 12.8157 95.5964C13.7369 95.8435 14.187 95.4683 14.3167 94.3448C14.4103 93.5347 14.8605 92.3102 15.3085 91.6475C15.6469 91.1467 16.1976 90.646 16.4178 90.639C16.494 90.6366 16.6203 90.5574 16.6985 90.4632C16.7768 90.3688 17.0314 90.2559 17.2642 90.2123C17.8235 90.1074 18.3515 89.4443 18.2376 88.9901C18.152 88.6493 16.9647 87.7547 16.4147 87.6167C16.2443 87.574 16.0359 87.4556 15.9514 87.3539C15.867 87.2521 15.6712 87.1207 15.5163 87.0619C15.3615 87.0029 15.2345 86.8567 15.2341 86.7368C15.2336 86.6169 15.1466 86.3528 15.0407 86.1501C14.9342 85.9463 14.8276 85.3697 14.8021 84.86C14.7371 83.5616 14.5305 83.0478 13.9377 82.7112C13.6109 82.5255 13.3535 82.4617 13.1462 82.5151ZM0.308068 82.7701C0.0709419 83.0321 -0.0794423 84.0361 0.0444039 84.5298C0.154121 84.9667 1.04673 85.206 1.5657 84.9377C1.92925 84.7497 2.33876 83.9992 2.33028 83.5368C2.31591 82.7561 0.830483 82.1929 0.308068 82.7701ZM25.1099 83.1794C25.3549 83.4039 25.5554 83.6699 25.5554 83.7707C25.5554 84.0512 24.9274 84.5783 24.4812 84.6724C23.5512 84.8683 23.4282 83.6358 24.3067 82.9249C24.5727 82.7097 24.6101 82.7215 25.1099 83.1794ZM14.1011 89.9254C13.6998 90.3267 13.3609 90.6367 13.348 90.6141C13.3351 90.5916 13.0909 90.3118 12.8054 89.9923C12.5198 89.6728 12.2861 89.3292 12.2861 89.2286C12.2861 89.1279 12.4734 88.8584 12.7022 88.6296C12.9309 88.4008 13.1547 88.0983 13.1994 87.9575C13.2731 87.7251 13.3523 87.7705 14.0556 88.4486L14.8306 89.1959L14.1011 89.9254ZM22.2381 91.7066C21.5271 91.9064 21.1323 92.4606 21.1323 93.2592C21.1323 94.0489 21.9869 94.5202 22.7258 94.1382C22.9364 94.0292 23.1616 93.8009 23.2263 93.6309C23.3927 93.193 23.3721 92.3128 23.1903 92.0941C22.989 91.8521 22.4709 91.6411 22.2381 91.7066Z" fill="black"/>
</svg>
